<?xml version="1.0" encoding="iso-8859-1"?>
<!-- Generator: Adobe Illustrator 19.0.0, SVG Export Plug-In . SVG Version: 6.00 Build 0)  -->
<svg version="1.1" id="Capa_1" xmlns="http://www.w3.org/2000/svg" xmlns:xlink="http://www.w3.org/1999/xlink" x="0px" y="0px"
	 viewBox="0 0 341.853 341.853" style="enable-background:new 0 0 341.853 341.853;" xml:space="preserve">
<path style="fill:#263645;" d="M316.927,112.253h-80.4c0-13.2-10.4-23.6-23.6-23.6h-84c-13.2,0-23.6,10.4-23.6,23.6h-80.4
	c-11.6,0-21.2,9.6-21.2,21.2v187.2c0,11.6,9.6,21.2,21.2,21.2h292c11.6,0,21.2-9.6,21.2-21.2v-187.6
	C337.727,121.453,328.527,112.253,316.927,112.253z"/>
<g>
	<path style="fill:#2D3F4C;" d="M18.927,320.653v-187.6c0-11.6,9.6-21.2,21.2-21.2h-14.8c-11.6,0-21.2,9.6-21.2,21.2v187.2
		c0,11.6,9.6,21.2,21.2,21.2h14.8C28.127,341.453,18.927,332.253,18.927,320.653z"/>
	<path style="fill:#2D3F4C;" d="M143.727,88.653h-14.8c-13.2,0-23.6,10.4-23.6,23.6h14.8
		C120.127,99.053,130.527,88.653,143.727,88.653z"/>
</g>
<path style="fill:#1BB5FF;" d="M296.527,295.053h-251.2c-5.2,0-9.2-4-9.2-9.2v-136.4c0-5.2,4-9.2,9.2-9.2h251.2c5.2,0,9.2,4,9.2,9.2
	v136.8C305.727,291.053,301.727,295.053,296.527,295.053z"/>
<g>
	<path style="fill:#E3E8EE;" d="M207.327,323.853h-147.6c-3.2,0-5.6-2.4-5.6-5.6s2.4-5.6,5.6-5.6h147.6c3.2,0,5.6,2.4,5.6,5.6
		C212.527,321.453,210.127,323.853,207.327,323.853z"/>
	<path style="fill:#E3E8EE;" d="M283.327,323.853h-47.2c-3.2,0-5.6-2.4-5.6-5.6s2.4-5.6,5.6-5.6h47.2c3.2,0,5.6,2.4,5.6,5.6
		C288.927,321.453,286.527,323.853,283.327,323.853z"/>
</g>
<path style="fill:#0D1625;" d="M170.927,88.653c-2,0-4-1.2-4.8-2.8l-72.4-76.8c-2-2-2-5.6,0.4-7.6c2-2,5.6-2,7.6,0.4l69.2,73.6
	l69.2-73.6c2-2,5.6-2.4,7.6-0.4s2.4,5.6,0.4,7.6l-72,76.4C174.927,87.453,172.927,88.653,170.927,88.653z"/>
<g>
	<polygon style="fill:#B3F1FF;" points="166.127,139.853 104.527,295.053 145.327,295.053 206.927,139.853 	"/>
	<polygon style="fill:#B3F1FF;" points="239.727,139.853 178.127,295.053 198.527,295.053 260.127,139.853 	"/>
</g>
<g>
</g>
<g>
</g>
<g>
</g>
<g>
</g>
<g>
</g>
<g>
</g>
<g>
</g>
<g>
</g>
<g>
</g>
<g>
</g>
<g>
</g>
<g>
</g>
<g>
</g>
<g>
</g>
<g>
</g>
</svg>
