<svg xmlns="http://www.w3.org/2000/svg" style="display: none;"><symbol id="tv-1" viewBox="0 0 333.6 333.6"><title>tv-1</title><path d="M128,58.297h29.2l-46.8-53.6c-4-4.4-10.8-5.2-15.6-1.2c-4.4,4-5.2,10.8-1.2,15.6L128,58.297z"/><path d="M226.4,41.897c4.4-4.4,4.4-11.2,0-15.6c-4.4-4.4-11.2-4.4-15.6,0l-31.6,31.6H210L226.4,41.897z"/><path d="M308.8,70.297h-142h-142c-13.6,0-24.8,11.2-24.8,24.8v178c0,13.6,11.2,24.8,24.8,24.8h38.4h207.2h38.4 c13.6,0,24.8-11.2,24.8-24.8v-178C333.6,81.497,322.4,70.297,308.8,70.297z M235.6,245.897c0,9.6-7.6,17.2-17.2,17.2H54 c-9.6,0-17.2-7.6-17.2-17.2v-123.2c0-9.6,7.6-17.2,17.2-17.2h164.4c9.6,0,17.2,7.6,17.2,17.2V245.897z M306.4,207.497 c0,2-1.6,3.6-3.6,3.6h-36c-2,0-3.6-1.6-3.6-3.6v-27.2c0-2,1.6-3.6,3.6-3.6h36c2,0,3.6,1.6,3.6,3.6V207.497z M306.4,149.897 c0,2-1.6,3.6-3.6,3.6h-36c-2,0-3.6-1.6-3.6-3.6v-27.2c0-2,1.6-3.6,3.6-3.6h36c2,0,3.6,1.6,3.6,3.6V149.897z"/><path d="M24.8,319.897c0,7.2,5.6,12.8,12.8,12.8h12.8c7.2,0,12.8-5.6,12.8-12.8v-10H24.8V319.897z"/><path d="M270.4,319.897L270.4,319.897c0,7.2,5.6,12.8,12.8,12.8H296c7.2,0,12.8-5.6,12.8-12.8v-10h-38.4V319.897z"/></symbol><symbol id="video-camera" viewBox="0 0 332.804 332.804"><title>video-camera</title><path d="M330.804,171.002c-3.6-6.4-12-8.8-18.8-4.8l-45.6,26.4l-11.6,6.8v63.2l10.8,6.4c0.4,0,0.4,0.4,0.8,0.4l44.8,26 c2,1.6,4.8,2.4,7.6,2.4c7.6,0,13.6-6,13.6-13.6v-53.6l0.4-52.8C332.804,175.402,332.404,173.002,330.804,171.002z"/><path d="M64.404,150.602c35.6,0,64.4-28.8,64.4-64.4c0-35.6-28.8-64.4-64.4-64.4s-64.4,28.8-64.4,64.4 C-0.396,121.802,28.804,150.602,64.404,150.602z M64.404,59.802c14.8,0,26.4,12,26.4,26.4c0,14.8-12,26.4-26.4,26.4 c-14.4,0-26.4-12-26.4-26.4C37.604,71.402,49.604,59.802,64.404,59.802z"/><path d="M227.604,154.202c-10.4,5.2-22,8.4-34.4,8.4c-15.2,0-29.6-4.4-41.6-12.4h-45.6c-12,8-26.4,12.4-41.6,12.4 c-12.4,0-24-2.8-34.4-8.4c-9.2,5.2-15.6,15.6-15.6,26.8v97.6c0,18,14.8,32.4,32.4,32.4h164.4c18,0,32.4-14.8,32.4-32.4v-97.6 C243.204,169.802,236.804,159.402,227.604,154.202z"/><path d="M193.204,150.602c35.6,0,64.4-28.8,64.4-64.4c0-35.6-28.8-64.4-64.4-64.4c-35.6,0-64.4,28.8-64.4,64.4 C128.804,121.802,157.604,150.602,193.204,150.602z M193.204,59.802c14.8,0,26.4,12,26.4,26.4c0,14.8-12,26.4-26.4,26.4 c-14.4,0-26.4-12-26.4-26.4C166.804,71.402,178.404,59.802,193.204,59.802z"/></symbol><symbol id="popcorn" viewBox="0 0 338.105 338.105"><title>popcorn</title><path d="M225.652,164.905c-9.2,12-23.6,19.6-40,19.6c-11.6,0-22.8-4.4-31.2-11.6c-14,3.2-28.8,0.4-40.4-8 c-9.2,13.6-24.8,22-41.2,22c-6.8,0-13.2-1.2-19.2-4l12.4,111.2c2.8,24,20,44,44,44h118c24.4,0,41.6-20,44-44l13.2-120.4 c-6.4,2.8-13.6,4.4-20.8,4.4C248.852,178.105,236.852,174.905,225.652,164.905z M227.652,262.505L227.652,262.505 c0,9.6-8,17.6-17.6,17.6h-81.6c-9.6,0-17.6-8-17.6-17.6v-29.2c0-9.6,8-17.6,17.6-17.6h81.6c9.6,0,17.6,8,17.6,17.6V262.505z"/><path d="M294.052,106.505c0.8-9.6-2.4-19.6-9.2-27.2c-13.6-14.8-36.4-16-51.2-2.8c-2,1.6-3.6,3.6-5.2,5.6c-2.8-0.4-5.2-0.8-8-0.4 c5.6,8,8.4,17.2,8.8,27.2c4.8,8,7.2,16.8,7.2,26c0,6.4-1.2,12.4-3.6,18c4.8,4.8,12,11.6,32,12c20,0,36.4-16,36.8-36 C301.252,120.505,298.452,112.905,294.052,106.505z"/><path d="M206.052,85.705c-13.6-14.8-36.4-16-51.2-2.8c-2,1.6-3.6,3.6-5.2,5.6c-10.8-2-22,0.8-30.8,8.8 c-14.8,13.6-16,36.4-2.8,51.2c10.8,12,28,15.2,42,8.8c6.4,8,16.4,13.2,28,13.2c20,0,36.4-16,36.8-36c0-8.4-2.8-16-7.2-22 C216.052,103.305,213.252,93.305,206.052,85.705z"/><path d="M104.052,155.305c-16.4-20.4-14-50.4,5.6-68c4-3.6,8.8-6.8,14-8.8c-3.6-1.6-7.6-2.4-11.2-2.8c-6.8-6.8-16-11.2-26.4-11.2 c-20,0-36.4,16.4-36.4,36.4c0,2.8,0.4,5.2,0.8,7.6c-8.4,6.8-14,17.2-14,28.8c0,20,16.4,36.4,36.4,36.4 C86.052,173.305,97.652,166.105,104.052,155.305z"/><path d="M129.252,66.105c4,1.6,6.8,4.8,7.6,8.8c2.4-0.4,4.8-0.4,7.2-0.4c0.4-0.4,1.2-1.2,1.6-1.6c18.8-16.8,46.8-16.8,65.6-1.2 c2.4-2,5.2-3.2,8.4-3.6c0.8,0,2,0,2.8,0c0.4-0.4,1.2-1.2,1.6-1.6c4.8-4.4,10.4-7.6,16.4-10c-1.6-3.6-3.2-7.2-5.6-10.4 c0.8-11.2-2.8-22.8-10.8-32c-15.6-17.6-42.8-18.8-60.4-3.2c-2.4,2-4.4,4.4-6,6.8c-12.4-2.4-26,1.2-36.4,10.4 c-8,7.2-12.8,17.2-14,27.2c4,2,7.6,4.4,10.8,7.2C122.452,63.305,125.652,64.505,129.252,66.105z"/></symbol><symbol id="tv" viewBox="0 0 497.407 497.407"><title>tv</title><path d="M355.581,158.864h-58.212c0-11.886-9.265-22.301-23.156-28.114l35.772-55.089c0.815,0.135,1.649,0.223,2.506,0.223 c8.424,0,15.252-6.829,15.252-15.252c0-8.423-6.828-15.251-15.252-15.251s-15.252,6.828-15.252,15.251 c0,3.111,0.938,6.001,2.535,8.414l-37.711,58.076c-4.246-0.821-8.725-1.27-13.359-1.27s-9.113,0.449-13.359,1.27L167.523,22.678 c1.47-2.293,2.333-5.012,2.333-7.938c0-8.14-6.6-14.74-14.74-14.74s-14.74,6.6-14.74,14.74c0,8.141,6.6,14.74,14.74,14.74 c0.749,0,1.48-0.074,2.2-0.182l65.878,101.452c-13.893,5.813-23.156,16.228-23.156,28.114h-58.212 c-56.217,0-101.789,45.572-101.789,101.789V372.62c0,47.421,32.428,87.267,76.318,98.574c-0.461,8.288-0.689,26.213,5.964,26.213 c5.884,0,15.631-14.023,21.269-23h210.23c5.638,8.977,15.385,23,21.269,23c6.653,0,6.425-17.925,5.964-26.213 c43.892-11.309,76.318-51.153,76.318-98.574V260.653C457.37,204.436,411.797,158.864,355.581,158.864z M334.818,414.945H109.332 c-11.046,0-20-8.954-20-20v-156.49c0-11.046,8.954-20,20-20h225.486c11.046,0,20,8.954,20,20v156.49 C354.818,405.991,345.864,414.945,334.818,414.945z M397.37,379.42c-13.07,0-23.667-10.596-23.667-23.667 s10.597-23.667,23.667-23.667s23.667,10.596,23.667,23.667S410.44,379.42,397.37,379.42z M397.37,287.753 c-13.07,0-23.667-10.596-23.667-23.667c0-13.07,10.597-23.667,23.667-23.667s23.667,10.597,23.667,23.667 C421.037,277.157,410.44,287.753,397.37,287.753z"/></symbol><symbol id="tv-screen" viewBox="0 0 341.853 341.853"><title>tv-screen</title><path style="fill:#263645;" d="M316.927,112.253h-80.4c0-13.2-10.4-23.6-23.6-23.6h-84c-13.2,0-23.6,10.4-23.6,23.6h-80.4 c-11.6,0-21.2,9.6-21.2,21.2v187.2c0,11.6,9.6,21.2,21.2,21.2h292c11.6,0,21.2-9.6,21.2-21.2v-187.6 C337.727,121.453,328.527,112.253,316.927,112.253z"/><g> <path style="fill:#2D3F4C;" d="M18.927,320.653v-187.6c0-11.6,9.6-21.2,21.2-21.2h-14.8c-11.6,0-21.2,9.6-21.2,21.2v187.2 c0,11.6,9.6,21.2,21.2,21.2h14.8C28.127,341.453,18.927,332.253,18.927,320.653z"/> <path style="fill:#2D3F4C;" d="M143.727,88.653h-14.8c-13.2,0-23.6,10.4-23.6,23.6h14.8 C120.127,99.053,130.527,88.653,143.727,88.653z"/> </g><path style="fill:#1BB5FF;" d="M296.527,295.053h-251.2c-5.2,0-9.2-4-9.2-9.2v-136.4c0-5.2,4-9.2,9.2-9.2h251.2c5.2,0,9.2,4,9.2,9.2 v136.8C305.727,291.053,301.727,295.053,296.527,295.053z"/><g> <path style="fill:#E3E8EE;" d="M207.327,323.853h-147.6c-3.2,0-5.6-2.4-5.6-5.6s2.4-5.6,5.6-5.6h147.6c3.2,0,5.6,2.4,5.6,5.6 C212.527,321.453,210.127,323.853,207.327,323.853z"/> <path style="fill:#E3E8EE;" d="M283.327,323.853h-47.2c-3.2,0-5.6-2.4-5.6-5.6s2.4-5.6,5.6-5.6h47.2c3.2,0,5.6,2.4,5.6,5.6 C288.927,321.453,286.527,323.853,283.327,323.853z"/> </g><path style="fill:#0D1625;" d="M170.927,88.653c-2,0-4-1.2-4.8-2.8l-72.4-76.8c-2-2-2-5.6,0.4-7.6c2-2,5.6-2,7.6,0.4l69.2,73.6 l69.2-73.6c2-2,5.6-2.4,7.6-0.4s2.4,5.6,0.4,7.6l-72,76.4C174.927,87.453,172.927,88.653,170.927,88.653z"/><g> <polygon style="fill:#B3F1FF;" points="166.127,139.853 104.527,295.053 145.327,295.053 206.927,139.853 "/> <polygon style="fill:#B3F1FF;" points="239.727,139.853 178.127,295.053 198.527,295.053 260.127,139.853 "/> </g></symbol></svg>